%TF.GenerationSoftware,KiCad,Pcbnew,10.0.5*%
%TF.CreationDate,2026-10-03T00:29:44+08:00*%
%TF.ProjectId,ProPrj_power_2026-10-02,50726f50-726a-45f7-906f-7765725f3230,rev?*%
%TF.SameCoordinates,Original*%
%TF.FileFunction,Soldermask,Top*%
%TF.FilePolarity,Negative*%
%FSLAX46Y46*%
G04 Gerber Fmt 4.6, Leading zero omitted, Abs format (unit mm)*
G04 Created by KiCad (PCBNEW 10.0.5) date 2026-10-03 00:29:44*
%MOMM*%
%LPD*%
G01*
G04 APERTURE LIST*
%ADD10R,0.899000X0.399000*%
%ADD11R,0.806500X0.864000*%
%ADD12R,1.350000X1.410000*%
%ADD13R,0.864000X0.806500*%
%ADD14R,1.524000X1.524000*%
%ADD15C,1.524000*%
%ADD16C,4.000000*%
%ADD17R,0.900000X0.800000*%
%ADD18R,1.400000X1.600000*%
%ADD19C,1.600000*%
%ADD20C,3.800000*%
%ADD21O,1.200000X2.200000*%
%ADD22R,1.575000X1.700000*%
%ADD23C,1.700000*%
%ADD24O,1.000000X2.100000*%
%ADD25O,1.000000X1.800000*%
%ADD26R,0.600000X1.140000*%
%ADD27R,0.300000X1.140000*%
%ADD28R,3.048000X3.419000*%
%ADD29R,1.000000X1.100000*%
%ADD30O,2.000000X3.000000*%
%ADD31R,0.800000X0.800000*%
G04 APERTURE END LIST*
D10*
%TO.C,U5*%
X27547000Y-21271000D03*
X27547000Y-21921500D03*
X27547000Y-22571500D03*
X27547000Y-23222000D03*
X30067000Y-23222000D03*
X30067000Y-22571500D03*
X30067000Y-21921500D03*
X30067000Y-21271000D03*
%TD*%
D11*
%TO.C,R11*%
X36550000Y-35636000D03*
X35043000Y-35636000D03*
%TD*%
D12*
%TO.C,C1*%
X20351500Y-19906000D03*
X20351500Y-21906000D03*
%TD*%
D13*
%TO.C,R7*%
X35043500Y-21709000D03*
X35043500Y-23216000D03*
%TD*%
D14*
%TO.C,J3*%
X52297000Y-46736000D03*
D15*
X54797000Y-46736000D03*
X57297000Y-46736000D03*
X59797000Y-46736000D03*
X62297000Y-46736000D03*
X64797000Y-46736000D03*
%TD*%
D16*
%TO.C,H4*%
X96012000Y-4064000D03*
%TD*%
D17*
%TO.C,C7*%
X38214500Y-18404500D03*
X38214500Y-19804500D03*
%TD*%
D18*
%TO.C,J1*%
X56459500Y-39509000D03*
D19*
X58999500Y-39509000D03*
X61539500Y-39509000D03*
X64079500Y-39509000D03*
X66619500Y-39509000D03*
X69159500Y-39509000D03*
X71699500Y-39509000D03*
X74239500Y-39509000D03*
%TD*%
D13*
%TO.C,R13*%
X35065500Y-38909000D03*
X35065500Y-40416000D03*
%TD*%
%TO.C,R12*%
X33401000Y-35766500D03*
X33401000Y-37273500D03*
%TD*%
%TO.C,R9*%
X50347000Y-8054500D03*
X50347000Y-9561500D03*
%TD*%
D12*
%TO.C,C61*%
X24916500Y-12073500D03*
X24916500Y-10073500D03*
%TD*%
%TO.C,C58*%
X18771500Y-12073500D03*
X18771500Y-10073500D03*
%TD*%
D14*
%TO.C,J4*%
X70966000Y-46736000D03*
D15*
X73466000Y-46736000D03*
X75966000Y-46736000D03*
X78466000Y-46736000D03*
X80966000Y-46736000D03*
X83466000Y-46736000D03*
%TD*%
D13*
%TO.C,R6*%
X31750500Y-38909000D03*
X31750500Y-40416000D03*
%TD*%
D20*
%TO.C,CN1*%
X4147000Y-16081000D03*
X11347000Y-16081000D03*
D21*
X14497000Y-10081000D03*
X997000Y-10081000D03*
%TD*%
D10*
%TO.C,U1*%
X27569000Y-38470500D03*
X27569000Y-39121000D03*
X27569000Y-39771000D03*
X27569000Y-40421500D03*
X30089000Y-40421500D03*
X30089000Y-39771000D03*
X30089000Y-39121000D03*
X30089000Y-38470500D03*
%TD*%
D17*
%TO.C,C16*%
X36725000Y-40379000D03*
X36725000Y-38979000D03*
%TD*%
D16*
%TO.C,H3*%
X95504000Y-45847000D03*
%TD*%
D12*
%TO.C,C9*%
X24765000Y-37081000D03*
X24765000Y-39081000D03*
%TD*%
D11*
%TO.C,R2*%
X36528000Y-18436500D03*
X35021000Y-18436500D03*
%TD*%
D16*
%TO.C,H2*%
X4826000Y-23495000D03*
%TD*%
D22*
%TO.C,J7*%
X56632500Y-12746500D03*
D23*
X59172500Y-12746500D03*
X61712500Y-12746500D03*
X64252500Y-12746500D03*
X66792500Y-12746500D03*
X69332500Y-12746500D03*
X71872500Y-12746500D03*
%TD*%
D24*
%TO.C,USB1*%
X34288000Y-5742000D03*
D25*
X34288000Y-1562000D03*
X42928000Y-1562000D03*
D24*
X42928000Y-5742000D03*
D26*
X41808000Y-6312000D03*
X41008000Y-6312000D03*
D27*
X39858000Y-6312000D03*
X38858000Y-6312000D03*
X38358000Y-6312000D03*
X37358000Y-6312000D03*
D26*
X35408000Y-6312000D03*
X36208000Y-6312000D03*
D27*
X36858000Y-6312000D03*
X37858000Y-6312000D03*
X39358000Y-6312000D03*
X40358000Y-6312000D03*
%TD*%
D16*
%TO.C,H1*%
X4572000Y-45466000D03*
%TD*%
D24*
%TO.C,USB2*%
X48512000Y-5742000D03*
D25*
X48512000Y-1562000D03*
X57152000Y-1562000D03*
D24*
X57152000Y-5742000D03*
D26*
X56032000Y-6312000D03*
X55232000Y-6312000D03*
D27*
X54082000Y-6312000D03*
X53082000Y-6312000D03*
X52582000Y-6312000D03*
X51582000Y-6312000D03*
D26*
X49632000Y-6312000D03*
X50432000Y-6312000D03*
D27*
X51082000Y-6312000D03*
X52082000Y-6312000D03*
X53582000Y-6312000D03*
X54582000Y-6312000D03*
%TD*%
D28*
%TO.C,L1*%
X34568500Y-28647000D03*
X27502500Y-28647000D03*
%TD*%
D22*
%TO.C,J6*%
X79065500Y-35747000D03*
D23*
X81605500Y-35747000D03*
X84145500Y-35747000D03*
X86685500Y-35747000D03*
X89225500Y-35747000D03*
X91765500Y-35747000D03*
X94305500Y-35747000D03*
%TD*%
D12*
%TO.C,C3*%
X24743000Y-19881500D03*
X24743000Y-21881500D03*
%TD*%
D13*
%TO.C,R1*%
X31728500Y-21709000D03*
X31728500Y-23216000D03*
%TD*%
D22*
%TO.C,J8*%
X56632500Y-35874000D03*
D23*
X59172500Y-35874000D03*
X61712500Y-35874000D03*
X64252500Y-35874000D03*
X66792500Y-35874000D03*
X69332500Y-35874000D03*
X71872500Y-35874000D03*
%TD*%
D13*
%TO.C,R4*%
X40957500Y-9557500D03*
X40957500Y-8050500D03*
%TD*%
%TO.C,R5*%
X36195000Y-8009500D03*
X36195000Y-9516500D03*
%TD*%
D17*
%TO.C,C6*%
X31710500Y-19963500D03*
X31710500Y-18563500D03*
%TD*%
D12*
%TO.C,C12*%
X38280500Y-45891000D03*
X38280500Y-43891000D03*
%TD*%
%TO.C,C5*%
X38258500Y-28691500D03*
X38258500Y-26691500D03*
%TD*%
%TO.C,C13*%
X40497000Y-45891000D03*
X40497000Y-43891000D03*
%TD*%
D17*
%TO.C,C15*%
X38236500Y-35604000D03*
X38236500Y-37004000D03*
%TD*%
D12*
%TO.C,C4*%
X40475000Y-28691500D03*
X40475000Y-26691500D03*
%TD*%
D29*
%TO.C,D1*%
X28218000Y-8509000D03*
X31472000Y-8509000D03*
%TD*%
D17*
%TO.C,C14*%
X31732500Y-37163000D03*
X31732500Y-35763000D03*
%TD*%
D13*
%TO.C,R8*%
X55164500Y-9509500D03*
X55164500Y-8002500D03*
%TD*%
%TO.C,R15*%
X29906000Y-10233500D03*
X29906000Y-11740500D03*
%TD*%
D12*
%TO.C,C8*%
X20373500Y-37106000D03*
X20373500Y-39106000D03*
%TD*%
D22*
%TO.C,J5*%
X79065500Y-12746500D03*
D23*
X81605500Y-12746500D03*
X84145500Y-12746500D03*
X86685500Y-12746500D03*
X89225500Y-12746500D03*
X91765500Y-12746500D03*
X94305500Y-12746500D03*
%TD*%
D12*
%TO.C,C2*%
X22510500Y-19906000D03*
X22510500Y-21906000D03*
%TD*%
D17*
%TO.C,C11*%
X36703000Y-23179000D03*
X36703000Y-21779000D03*
%TD*%
D18*
%TO.C,J2*%
X77978000Y-39509000D03*
D19*
X80518000Y-39509000D03*
X83058000Y-39509000D03*
X85598000Y-39509000D03*
X88138000Y-39509000D03*
X90678000Y-39509000D03*
X93218000Y-39509000D03*
X95758000Y-39509000D03*
%TD*%
D28*
%TO.C,L2*%
X34590500Y-45847000D03*
X27524500Y-45847000D03*
%TD*%
D13*
%TO.C,R10*%
X33379000Y-21709000D03*
X33379000Y-23216000D03*
%TD*%
D12*
%TO.C,C60*%
X22868000Y-12073500D03*
X22868000Y-10073500D03*
%TD*%
%TO.C,C10*%
X22532500Y-37106000D03*
X22532500Y-39106000D03*
%TD*%
D13*
%TO.C,R14*%
X33401000Y-38909000D03*
X33401000Y-40416000D03*
%TD*%
%TO.C,R3*%
X33379000Y-18566500D03*
X33379000Y-20073500D03*
%TD*%
D30*
%TO.C,SW2*%
X28322000Y-3810000D03*
X23622000Y-3810000D03*
X18922000Y-3810000D03*
%TD*%
D31*
%TO.C,LED1*%
X28250000Y-11831000D03*
X28245000Y-10230500D03*
%TD*%
D12*
%TO.C,C59*%
X20820000Y-12073500D03*
X20820000Y-10073500D03*
%TD*%
M02*
