%TF.GenerationSoftware,KiCad,Pcbnew,10.0.5*%
%TF.CreationDate,2026-10-03T00:29:44+08:00*%
%TF.ProjectId,ProPrj_power_2026-10-02,50726f50-726a-45f7-906f-7765725f3230,rev?*%
%TF.SameCoordinates,Original*%
%TF.FileFunction,Legend,Top*%
%TF.FilePolarity,Positive*%
%FSLAX46Y46*%
G04 Gerber Fmt 4.6, Leading zero omitted, Abs format (unit mm)*
G04 Created by KiCad (PCBNEW 10.0.5) date 2026-10-03 00:29:44*
%MOMM*%
%LPD*%
G01*
G04 APERTURE LIST*
%ADD10C,0.119500*%
%ADD11C,0.200500*%
%ADD12C,0.152500*%
%ADD13C,0.254000*%
%ADD14C,0.000000*%
%ADD15C,0.152000*%
%ADD16C,0.150000*%
%ADD17R,0.899000X0.399000*%
%ADD18R,0.806500X0.864000*%
%ADD19R,1.350000X1.410000*%
%ADD20R,0.864000X0.806500*%
%ADD21R,1.524000X1.524000*%
%ADD22C,1.524000*%
%ADD23C,4.000000*%
%ADD24R,0.900000X0.800000*%
%ADD25R,1.400000X1.600000*%
%ADD26C,1.600000*%
%ADD27C,3.800000*%
%ADD28O,1.200000X2.200000*%
%ADD29R,1.575000X1.700000*%
%ADD30C,1.700000*%
%ADD31O,1.000000X2.100000*%
%ADD32O,1.000000X1.800000*%
%ADD33R,0.600000X1.140000*%
%ADD34R,0.300000X1.140000*%
%ADD35R,3.048000X3.419000*%
%ADD36R,1.000000X1.100000*%
%ADD37O,2.000000X3.000000*%
%ADD38R,0.800000X0.800000*%
G04 APERTURE END LIST*
%TO.C,U5*%
D10*
X28007000Y-20796000D02*
X28007000Y-20913000D01*
X28007000Y-20796000D02*
X28553000Y-20796000D01*
X28007000Y-23580000D02*
X28007000Y-23697000D01*
X28007000Y-23697000D02*
X29607000Y-23697000D01*
X29607000Y-20796000D02*
X29061000Y-20796000D01*
X29607000Y-20796000D02*
X29607000Y-20913000D01*
X29607000Y-23580000D02*
X29607000Y-23697000D01*
X29061000Y-20796500D02*
G75*
G02*
X28552001Y-20796000I-254497J2997D01*
G01*
D11*
X27636000Y-20722500D02*
G75*
G02*
X27438000Y-20722500I-99000J0D01*
G01*
X27438000Y-20722500D02*
G75*
G02*
X27636000Y-20722500I99000J0D01*
G01*
%TO.C,R11*%
D12*
X34411500Y-34975500D02*
X34411500Y-36296500D01*
X34411500Y-36296500D02*
X35370500Y-36296500D01*
X35370500Y-34975500D02*
X34411500Y-34975500D01*
X36222500Y-34975500D02*
X37181500Y-34975500D01*
X37181500Y-34975500D02*
X37181500Y-36296500D01*
X37181500Y-36296500D02*
X36222500Y-36296500D01*
%TO.C,C1*%
X19448000Y-20505000D02*
X19448000Y-19095000D01*
X19448000Y-21307000D02*
X19448000Y-22717000D01*
X19600500Y-18942500D02*
X21102500Y-18942500D01*
X19600500Y-22869500D02*
X21102500Y-22869500D01*
X21255000Y-19095000D02*
X21255000Y-20505000D01*
X21255000Y-22717000D02*
X21255000Y-21307000D01*
X19448000Y-19095000D02*
G75*
G02*
X19600500Y-18942500I152499J1D01*
G01*
X19600500Y-22869500D02*
G75*
G02*
X19448000Y-22717000I0J152500D01*
G01*
X21102500Y-18942500D02*
G75*
G02*
X21255000Y-19095000I1J-152499D01*
G01*
X21255000Y-22717000D02*
G75*
G02*
X21102500Y-22869500I-152500J0D01*
G01*
%TO.C,R7*%
X34383000Y-21077500D02*
X35704000Y-21077500D01*
X34383000Y-22036500D02*
X34383000Y-21077500D01*
X34383000Y-22888500D02*
X34383000Y-23847500D01*
X34383000Y-23847500D02*
X35704000Y-23847500D01*
X35704000Y-21077500D02*
X35704000Y-22036500D01*
X35704000Y-23847500D02*
X35704000Y-22888500D01*
%TO.C,J3*%
D13*
X49797000Y-43236000D02*
X49797000Y-49236000D01*
X67297000Y-43236000D02*
X49797000Y-43236000D01*
X67297000Y-49236000D02*
X49797000Y-49236000D01*
X67297000Y-49236000D02*
X67297000Y-43236000D01*
X50800000Y-43942000D02*
X66294000Y-43942000D01*
X66294000Y-48387000D01*
X50800000Y-48387000D01*
X50800000Y-43942000D01*
D14*
G36*
X53153000Y-49276000D02*
G01*
X51375000Y-49276000D01*
X51375000Y-48260000D01*
X53153000Y-48260000D01*
X53153000Y-49276000D01*
G37*
G36*
X65653000Y-49276000D02*
G01*
X63875000Y-49276000D01*
X63875000Y-48260000D01*
X65653000Y-48260000D01*
X65653000Y-49276000D01*
G37*
%TO.C,C7*%
D13*
X37504500Y-19385000D02*
X37504500Y-20184500D01*
X37510500Y-18809000D02*
X37510500Y-18009000D01*
X38614500Y-20494500D02*
X37814000Y-20494500D01*
X38620000Y-17699000D02*
X37820000Y-17699000D01*
X38924000Y-19385000D02*
X38924000Y-20184500D01*
X38930000Y-18809000D02*
X38930000Y-18009000D01*
X37510500Y-18009000D02*
G75*
G02*
X37820000Y-17699000I310354J-353D01*
G01*
X37814500Y-20494500D02*
G75*
G02*
X37504500Y-20184500I0J310000D01*
G01*
X38620000Y-17699000D02*
G75*
G02*
X38930000Y-18009000I0J-310000D01*
G01*
X38924000Y-20184500D02*
G75*
G02*
X38614500Y-20494499I-310350J350D01*
G01*
%TO.C,J1*%
X55189500Y-38239000D02*
X55189500Y-40779000D01*
X55189500Y-38239000D02*
X75509500Y-38239000D01*
X55189500Y-40779000D02*
X75509500Y-40779000D01*
X75509500Y-38239000D02*
X75509500Y-40779000D01*
%TO.C,R13*%
D12*
X34405000Y-38277500D02*
X35726000Y-38277500D01*
X34405000Y-39236500D02*
X34405000Y-38277500D01*
X34405000Y-40088500D02*
X34405000Y-41047500D01*
X34405000Y-41047500D02*
X35726000Y-41047500D01*
X35726000Y-38277500D02*
X35726000Y-39236500D01*
X35726000Y-41047500D02*
X35726000Y-40088500D01*
%TO.C,R12*%
X32740500Y-35135000D02*
X34061500Y-35135000D01*
X32740500Y-36094000D02*
X32740500Y-35135000D01*
X32740500Y-36946000D02*
X32740500Y-37905000D01*
X32740500Y-37905000D02*
X34061500Y-37905000D01*
X34061500Y-35135000D02*
X34061500Y-36094000D01*
X34061500Y-37905000D02*
X34061500Y-36946000D01*
%TO.C,R9*%
X49686500Y-7423000D02*
X51007500Y-7423000D01*
X49686500Y-8382000D02*
X49686500Y-7423000D01*
X49686500Y-9234000D02*
X49686500Y-10193000D01*
X49686500Y-10193000D02*
X51007500Y-10193000D01*
X51007500Y-7423000D02*
X51007500Y-8382000D01*
X51007500Y-10193000D02*
X51007500Y-9234000D01*
%TO.C,C61*%
X24013000Y-9262500D02*
X24013000Y-10672500D01*
X24013000Y-12884500D02*
X24013000Y-11474500D01*
X25667500Y-9110000D02*
X24165500Y-9110000D01*
X25667500Y-13037000D02*
X24165500Y-13037000D01*
X25820000Y-10672500D02*
X25820000Y-9262500D01*
X25820000Y-11474500D02*
X25820000Y-12884500D01*
X24013000Y-9262500D02*
G75*
G02*
X24165500Y-9110000I152500J0D01*
G01*
X24165500Y-13037000D02*
G75*
G02*
X24013000Y-12884500I-1J152499D01*
G01*
X25667500Y-9110000D02*
G75*
G02*
X25820000Y-9262500I0J-152500D01*
G01*
X25820000Y-12884500D02*
G75*
G02*
X25667500Y-13037000I-152499J-1D01*
G01*
%TO.C,C58*%
X17868000Y-9262500D02*
X17868000Y-10672500D01*
X17868000Y-12884500D02*
X17868000Y-11474500D01*
X19522500Y-9110000D02*
X18020500Y-9110000D01*
X19522500Y-13037000D02*
X18020500Y-13037000D01*
X19675000Y-10672500D02*
X19675000Y-9262500D01*
X19675000Y-11474500D02*
X19675000Y-12884500D01*
X17868000Y-9262500D02*
G75*
G02*
X18020500Y-9110000I152500J0D01*
G01*
X18020500Y-13037000D02*
G75*
G02*
X17868000Y-12884500I-1J152499D01*
G01*
X19522500Y-9110000D02*
G75*
G02*
X19675000Y-9262500I0J-152500D01*
G01*
X19675000Y-12884500D02*
G75*
G02*
X19522500Y-13037000I-152499J-1D01*
G01*
%TO.C,J4*%
D13*
X68466000Y-43236000D02*
X68466000Y-49236000D01*
X85966000Y-43236000D02*
X68466000Y-43236000D01*
X85966000Y-49236000D02*
X68466000Y-49236000D01*
X85966000Y-49236000D02*
X85966000Y-43236000D01*
X69469000Y-43942000D02*
X84963000Y-43942000D01*
X84963000Y-48387000D01*
X69469000Y-48387000D01*
X69469000Y-43942000D01*
D14*
G36*
X71822000Y-49276000D02*
G01*
X70044000Y-49276000D01*
X70044000Y-48260000D01*
X71822000Y-48260000D01*
X71822000Y-49276000D01*
G37*
G36*
X84322000Y-49276000D02*
G01*
X82544000Y-49276000D01*
X82544000Y-48260000D01*
X84322000Y-48260000D01*
X84322000Y-49276000D01*
G37*
%TO.C,R6*%
D12*
X31090000Y-38277500D02*
X32411000Y-38277500D01*
X31090000Y-39236500D02*
X31090000Y-38277500D01*
X31090000Y-40088500D02*
X31090000Y-41047500D01*
X31090000Y-41047500D02*
X32411000Y-41047500D01*
X32411000Y-38277500D02*
X32411000Y-39236500D01*
X32411000Y-41047500D02*
X32411000Y-40088500D01*
%TO.C,CN1*%
D13*
X-3000Y84500D02*
X-3000Y-14081000D01*
X-3000Y84500D02*
X15497000Y84500D01*
X3203500Y-17990000D02*
X1753500Y-17982500D01*
X10485000Y-18028500D02*
X5070500Y-18000000D01*
X13809000Y-18046000D02*
X12188000Y-18037500D01*
X15497000Y84500D02*
X15497000Y-14081000D01*
X1685000Y-17998000D02*
G75*
G02*
X0Y-13970000I4311580J4170064D01*
G01*
X15494000Y-14018000D02*
G75*
G02*
X13808999Y-18045999I-5999150J143140D01*
G01*
%TO.C,U1*%
D10*
X28029000Y-37995500D02*
X28029000Y-38112500D01*
X28029000Y-37995500D02*
X28575000Y-37995500D01*
X28029000Y-40779500D02*
X28029000Y-40896500D01*
X28029000Y-40896500D02*
X29629000Y-40896500D01*
X29629000Y-37995500D02*
X29083000Y-37995500D01*
X29629000Y-37995500D02*
X29629000Y-38112500D01*
X29629000Y-40779500D02*
X29629000Y-40896500D01*
X29083000Y-37996000D02*
G75*
G02*
X28574001Y-37995500I-254497J2997D01*
G01*
D11*
X27658000Y-37922000D02*
G75*
G02*
X27460000Y-37922000I-99000J0D01*
G01*
X27460000Y-37922000D02*
G75*
G02*
X27658000Y-37922000I99000J0D01*
G01*
%TO.C,C16*%
D13*
X36009500Y-39974500D02*
X36009500Y-40774500D01*
X36015500Y-39398500D02*
X36015500Y-38599000D01*
X36319500Y-41084500D02*
X37119500Y-41084500D01*
X36325000Y-38289000D02*
X37125500Y-38289000D01*
X37429000Y-39974500D02*
X37429000Y-40774500D01*
X37435000Y-39398500D02*
X37435000Y-38599000D01*
X36015500Y-38599000D02*
G75*
G02*
X36325000Y-38289001I310350J-350D01*
G01*
X36319500Y-41084500D02*
G75*
G02*
X36009500Y-40774500I0J310000D01*
G01*
X37125000Y-38289000D02*
G75*
G02*
X37435000Y-38599000I0J-310000D01*
G01*
X37429000Y-40774500D02*
G75*
G02*
X37119500Y-41084500I-310354J353D01*
G01*
%TO.C,C9*%
D12*
X23861500Y-37680000D02*
X23861500Y-36270000D01*
X23861500Y-38482000D02*
X23861500Y-39892000D01*
X24014000Y-36117500D02*
X25516000Y-36117500D01*
X24014000Y-40044500D02*
X25516000Y-40044500D01*
X25668500Y-36270000D02*
X25668500Y-37680000D01*
X25668500Y-39892000D02*
X25668500Y-38482000D01*
X23861500Y-36270000D02*
G75*
G02*
X24014000Y-36117500I152499J1D01*
G01*
X24014000Y-40044500D02*
G75*
G02*
X23861500Y-39892000I0J152500D01*
G01*
X25516000Y-36117500D02*
G75*
G02*
X25668500Y-36270000I1J-152499D01*
G01*
X25668500Y-39892000D02*
G75*
G02*
X25516000Y-40044500I-152500J0D01*
G01*
%TO.C,R2*%
X34389500Y-17776000D02*
X34389500Y-19097000D01*
X34389500Y-19097000D02*
X35348500Y-19097000D01*
X35348500Y-17776000D02*
X34389500Y-17776000D01*
X36200500Y-17776000D02*
X37159500Y-17776000D01*
X37159500Y-17776000D02*
X37159500Y-19097000D01*
X37159500Y-19097000D02*
X36200500Y-19097000D01*
%TO.C,J7*%
D13*
X57902500Y-11603500D02*
X57902500Y-13889500D01*
X55122500Y-11546500D02*
X73382500Y-11546500D01*
X73382500Y-13946500D01*
X55122500Y-13946500D01*
X55122500Y-11546500D01*
%TO.C,USB1*%
X34138000Y1027000D02*
X34138000Y-446500D01*
X34138000Y-2677500D02*
X34138000Y-4476500D01*
X43078000Y1027000D02*
X34138000Y1027000D01*
X43078000Y1027000D02*
X43078000Y-446500D01*
X43078000Y-2677500D02*
X43078000Y-4476500D01*
%TO.C,USB2*%
X48362000Y1027000D02*
X48362000Y-446500D01*
X48362000Y-2677500D02*
X48362000Y-4476500D01*
X57302000Y1027000D02*
X48362000Y1027000D01*
X57302000Y1027000D02*
X57302000Y-446500D01*
X57302000Y-2677500D02*
X57302000Y-4476500D01*
%TO.C,L1*%
D12*
X27309500Y-25271500D02*
X34761500Y-25271500D01*
X27309500Y-26785000D02*
X27309500Y-25271500D01*
X27309500Y-30509000D02*
X27309500Y-32022500D01*
X27309500Y-32022500D02*
X34761500Y-32022500D01*
X34761500Y-25271500D02*
X34761500Y-26785000D01*
X34761500Y-32022500D02*
X34761500Y-30509000D01*
%TO.C,J6*%
D13*
X80335500Y-34604000D02*
X80335500Y-36890000D01*
X77555500Y-34547000D02*
X95815500Y-34547000D01*
X95815500Y-36947000D01*
X77555500Y-36947000D01*
X77555500Y-34547000D01*
%TO.C,C3*%
D12*
X23839500Y-20480500D02*
X23839500Y-19070500D01*
X23839500Y-21282500D02*
X23839500Y-22692500D01*
X23992000Y-18918000D02*
X25494000Y-18918000D01*
X23992000Y-22845000D02*
X25494000Y-22845000D01*
X25646500Y-19070500D02*
X25646500Y-20480500D01*
X25646500Y-22692500D02*
X25646500Y-21282500D01*
X23839500Y-19070500D02*
G75*
G02*
X23992000Y-18918000I152499J1D01*
G01*
X23992000Y-22845000D02*
G75*
G02*
X23839500Y-22692500I0J152500D01*
G01*
X25494000Y-18918000D02*
G75*
G02*
X25646500Y-19070500I1J-152499D01*
G01*
X25646500Y-22692500D02*
G75*
G02*
X25494000Y-22845000I-152500J0D01*
G01*
%TO.C,R1*%
X31068000Y-21077500D02*
X32389000Y-21077500D01*
X31068000Y-22036500D02*
X31068000Y-21077500D01*
X31068000Y-22888500D02*
X31068000Y-23847500D01*
X31068000Y-23847500D02*
X32389000Y-23847500D01*
X32389000Y-21077500D02*
X32389000Y-22036500D01*
X32389000Y-23847500D02*
X32389000Y-22888500D01*
%TO.C,J8*%
D13*
X57902500Y-34731000D02*
X57902500Y-37017000D01*
X55122500Y-34674000D02*
X73382500Y-34674000D01*
X73382500Y-37074000D01*
X55122500Y-37074000D01*
X55122500Y-34674000D01*
%TO.C,R4*%
D12*
X40297000Y-7419000D02*
X40297000Y-8378000D01*
X40297000Y-10189000D02*
X40297000Y-9230000D01*
X41618000Y-7419000D02*
X40297000Y-7419000D01*
X41618000Y-8378000D02*
X41618000Y-7419000D01*
X41618000Y-9230000D02*
X41618000Y-10189000D01*
X41618000Y-10189000D02*
X40297000Y-10189000D01*
%TO.C,R5*%
X35534500Y-7378000D02*
X36855500Y-7378000D01*
X35534500Y-8337000D02*
X35534500Y-7378000D01*
X35534500Y-9189000D02*
X35534500Y-10148000D01*
X35534500Y-10148000D02*
X36855500Y-10148000D01*
X36855500Y-7378000D02*
X36855500Y-8337000D01*
X36855500Y-10148000D02*
X36855500Y-9189000D01*
%TO.C,C6*%
D13*
X30995000Y-19559000D02*
X30995000Y-20359000D01*
X31001000Y-18983000D02*
X31001000Y-18183500D01*
X31305000Y-20669000D02*
X32105000Y-20669000D01*
X31310500Y-17873500D02*
X32111000Y-17873500D01*
X32414500Y-19559000D02*
X32414500Y-20359000D01*
X32420500Y-18983000D02*
X32420500Y-18183500D01*
X31001000Y-18183500D02*
G75*
G02*
X31310500Y-17873501I310350J-350D01*
G01*
X31305000Y-20669000D02*
G75*
G02*
X30995000Y-20359000I0J310000D01*
G01*
X32110500Y-17873500D02*
G75*
G02*
X32420500Y-18183500I0J-310000D01*
G01*
X32414500Y-20359000D02*
G75*
G02*
X32105000Y-20669000I-310354J353D01*
G01*
%TO.C,C12*%
D12*
X37377000Y-43080000D02*
X37377000Y-44490000D01*
X37377000Y-46702000D02*
X37377000Y-45292000D01*
X39031500Y-42927500D02*
X37529500Y-42927500D01*
X39031500Y-46854500D02*
X37529500Y-46854500D01*
X39184000Y-44490000D02*
X39184000Y-43080000D01*
X39184000Y-45292000D02*
X39184000Y-46702000D01*
X37377000Y-43080000D02*
G75*
G02*
X37529500Y-42927500I152500J0D01*
G01*
X37529500Y-46854500D02*
G75*
G02*
X37377000Y-46702000I-1J152499D01*
G01*
X39031500Y-42927500D02*
G75*
G02*
X39184000Y-43080000I0J-152500D01*
G01*
X39184000Y-46702000D02*
G75*
G02*
X39031500Y-46854500I-152499J-1D01*
G01*
%TO.C,C5*%
X37355000Y-25880500D02*
X37355000Y-27290500D01*
X37355000Y-29502500D02*
X37355000Y-28092500D01*
X39009500Y-25728000D02*
X37507500Y-25728000D01*
X39009500Y-29655000D02*
X37507500Y-29655000D01*
X39162000Y-27290500D02*
X39162000Y-25880500D01*
X39162000Y-28092500D02*
X39162000Y-29502500D01*
X37355000Y-25880500D02*
G75*
G02*
X37507500Y-25728000I152500J0D01*
G01*
X37507500Y-29655000D02*
G75*
G02*
X37355000Y-29502500I-1J152499D01*
G01*
X39009500Y-25728000D02*
G75*
G02*
X39162000Y-25880500I0J-152500D01*
G01*
X39162000Y-29502500D02*
G75*
G02*
X39009500Y-29655000I-152499J-1D01*
G01*
%TO.C,C13*%
X39593500Y-43080000D02*
X39593500Y-44490000D01*
X39593500Y-46702000D02*
X39593500Y-45292000D01*
X41248000Y-42927500D02*
X39746000Y-42927500D01*
X41248000Y-46854500D02*
X39746000Y-46854500D01*
X41400500Y-44490000D02*
X41400500Y-43080000D01*
X41400500Y-45292000D02*
X41400500Y-46702000D01*
X39593500Y-43080000D02*
G75*
G02*
X39746000Y-42927500I152500J0D01*
G01*
X39746000Y-46854500D02*
G75*
G02*
X39593500Y-46702000I-1J152499D01*
G01*
X41248000Y-42927500D02*
G75*
G02*
X41400500Y-43080000I0J-152500D01*
G01*
X41400500Y-46702000D02*
G75*
G02*
X41248000Y-46854500I-152499J-1D01*
G01*
%TO.C,C15*%
D13*
X37526500Y-36584500D02*
X37526500Y-37384000D01*
X37532500Y-36008500D02*
X37532500Y-35208500D01*
X38636500Y-37694000D02*
X37836000Y-37694000D01*
X38642000Y-34898500D02*
X37842000Y-34898500D01*
X38946000Y-36584500D02*
X38946000Y-37384000D01*
X38952000Y-36008500D02*
X38952000Y-35208500D01*
X37532500Y-35208500D02*
G75*
G02*
X37842000Y-34898500I310354J-353D01*
G01*
X37836500Y-37694000D02*
G75*
G02*
X37526500Y-37384000I0J310000D01*
G01*
X38642000Y-34898500D02*
G75*
G02*
X38952000Y-35208500I0J-310000D01*
G01*
X38946000Y-37384000D02*
G75*
G02*
X38636500Y-37693999I-310350J350D01*
G01*
%TO.C,C4*%
D12*
X39571500Y-25880500D02*
X39571500Y-27290500D01*
X39571500Y-29502500D02*
X39571500Y-28092500D01*
X41226000Y-25728000D02*
X39724000Y-25728000D01*
X41226000Y-29655000D02*
X39724000Y-29655000D01*
X41378500Y-27290500D02*
X41378500Y-25880500D01*
X41378500Y-28092500D02*
X41378500Y-29502500D01*
X39571500Y-25880500D02*
G75*
G02*
X39724000Y-25728000I152500J0D01*
G01*
X39724000Y-29655000D02*
G75*
G02*
X39571500Y-29502500I-1J152499D01*
G01*
X41226000Y-25728000D02*
G75*
G02*
X41378500Y-25880500I0J-152500D01*
G01*
X41378500Y-29502500D02*
G75*
G02*
X41226000Y-29655000I-152499J-1D01*
G01*
%TO.C,D1*%
D15*
X28438000Y-9375000D02*
X28128000Y-9375000D01*
X28439000Y-7643000D02*
X28045000Y-7643000D01*
D12*
X28439000Y-7643000D02*
X31251000Y-7643000D01*
X28439000Y-9375000D02*
X31251000Y-9375000D01*
X28900000Y-7643000D02*
X28900000Y-9375000D01*
D15*
X31251000Y-7643000D02*
X31495000Y-7643000D01*
X31251000Y-9375000D02*
X31495000Y-9375000D01*
X31495000Y-7643000D02*
X31495000Y-7779000D01*
X31495000Y-9239000D02*
X31495000Y-9359000D01*
D14*
G36*
X28245000Y-7854000D02*
G01*
X27940000Y-7854000D01*
X27940000Y-7559000D01*
X28245000Y-7559000D01*
X28245000Y-7854000D01*
G37*
G36*
X28245000Y-9451500D02*
G01*
X27940500Y-9451500D01*
X27940500Y-9156500D01*
X28245000Y-9156500D01*
X28245000Y-9451500D01*
G37*
%TO.C,C14*%
D13*
X31017000Y-36758500D02*
X31017000Y-37558500D01*
X31023000Y-36182500D02*
X31023000Y-35383000D01*
X31327000Y-37868500D02*
X32127000Y-37868500D01*
X31332500Y-35073000D02*
X32133000Y-35073000D01*
X32436500Y-36758500D02*
X32436500Y-37558500D01*
X32442500Y-36182500D02*
X32442500Y-35383000D01*
X31023000Y-35383000D02*
G75*
G02*
X31332500Y-35073001I310350J-350D01*
G01*
X31327000Y-37868500D02*
G75*
G02*
X31017000Y-37558500I0J310000D01*
G01*
X32132500Y-35073000D02*
G75*
G02*
X32442500Y-35383000I0J-310000D01*
G01*
X32436500Y-37558500D02*
G75*
G02*
X32127000Y-37868500I-310354J353D01*
G01*
%TO.C,R8*%
D12*
X54504000Y-7371000D02*
X54504000Y-8330000D01*
X54504000Y-10141000D02*
X54504000Y-9182000D01*
X55825000Y-7371000D02*
X54504000Y-7371000D01*
X55825000Y-8330000D02*
X55825000Y-7371000D01*
X55825000Y-9182000D02*
X55825000Y-10141000D01*
X55825000Y-10141000D02*
X54504000Y-10141000D01*
%TO.C,R15*%
X29245500Y-9602000D02*
X30566500Y-9602000D01*
X29245500Y-10561000D02*
X29245500Y-9602000D01*
X29245500Y-11413000D02*
X29245500Y-12372000D01*
X29245500Y-12372000D02*
X30566500Y-12372000D01*
X30566500Y-9602000D02*
X30566500Y-10561000D01*
X30566500Y-12372000D02*
X30566500Y-11413000D01*
%TO.C,C8*%
X19470000Y-37705000D02*
X19470000Y-36295000D01*
X19470000Y-38507000D02*
X19470000Y-39917000D01*
X19622500Y-36142500D02*
X21124500Y-36142500D01*
X19622500Y-40069500D02*
X21124500Y-40069500D01*
X21277000Y-36295000D02*
X21277000Y-37705000D01*
X21277000Y-39917000D02*
X21277000Y-38507000D01*
X19470000Y-36295000D02*
G75*
G02*
X19622500Y-36142500I152499J1D01*
G01*
X19622500Y-40069500D02*
G75*
G02*
X19470000Y-39917000I0J152500D01*
G01*
X21124500Y-36142500D02*
G75*
G02*
X21277000Y-36295000I1J-152499D01*
G01*
X21277000Y-39917000D02*
G75*
G02*
X21124500Y-40069500I-152500J0D01*
G01*
%TO.C,J5*%
D13*
X80335500Y-11603500D02*
X80335500Y-13889500D01*
X77555500Y-11546500D02*
X95815500Y-11546500D01*
X95815500Y-13946500D01*
X77555500Y-13946500D01*
X77555500Y-11546500D01*
%TO.C,C2*%
D12*
X21607000Y-20505000D02*
X21607000Y-19095000D01*
X21607000Y-21307000D02*
X21607000Y-22717000D01*
X21759500Y-18942500D02*
X23261500Y-18942500D01*
X21759500Y-22869500D02*
X23261500Y-22869500D01*
X23414000Y-19095000D02*
X23414000Y-20505000D01*
X23414000Y-22717000D02*
X23414000Y-21307000D01*
X21607000Y-19095000D02*
G75*
G02*
X21759500Y-18942500I152499J1D01*
G01*
X21759500Y-22869500D02*
G75*
G02*
X21607000Y-22717000I0J152500D01*
G01*
X23261500Y-18942500D02*
G75*
G02*
X23414000Y-19095000I1J-152499D01*
G01*
X23414000Y-22717000D02*
G75*
G02*
X23261500Y-22869500I-152500J0D01*
G01*
%TO.C,C11*%
D13*
X35987500Y-22774500D02*
X35987500Y-23574500D01*
X35993500Y-22198500D02*
X35993500Y-21399000D01*
X36297500Y-23884500D02*
X37097500Y-23884500D01*
X36303000Y-21089000D02*
X37103500Y-21089000D01*
X37407000Y-22774500D02*
X37407000Y-23574500D01*
X37413000Y-22198500D02*
X37413000Y-21399000D01*
X35993500Y-21399000D02*
G75*
G02*
X36303000Y-21089001I310350J-350D01*
G01*
X36297500Y-23884500D02*
G75*
G02*
X35987500Y-23574500I0J310000D01*
G01*
X37103000Y-21089000D02*
G75*
G02*
X37413000Y-21399000I0J-310000D01*
G01*
X37407000Y-23574500D02*
G75*
G02*
X37097500Y-23884500I-310354J353D01*
G01*
%TO.C,J2*%
X76708000Y-38239000D02*
X76708000Y-40779000D01*
X76708000Y-38239000D02*
X97028000Y-38239000D01*
X76708000Y-40779000D02*
X97028000Y-40779000D01*
X97028000Y-38239000D02*
X97028000Y-40779000D01*
%TO.C,L2*%
D12*
X27331500Y-42471500D02*
X34783500Y-42471500D01*
X27331500Y-43985000D02*
X27331500Y-42471500D01*
X27331500Y-47709000D02*
X27331500Y-49222500D01*
X27331500Y-49222500D02*
X34783500Y-49222500D01*
X34783500Y-42471500D02*
X34783500Y-43985000D01*
X34783500Y-49222500D02*
X34783500Y-47709000D01*
%TO.C,R10*%
X32718500Y-21077500D02*
X34039500Y-21077500D01*
X32718500Y-22036500D02*
X32718500Y-21077500D01*
X32718500Y-22888500D02*
X32718500Y-23847500D01*
X32718500Y-23847500D02*
X34039500Y-23847500D01*
X34039500Y-21077500D02*
X34039500Y-22036500D01*
X34039500Y-23847500D02*
X34039500Y-22888500D01*
%TO.C,C60*%
X21964500Y-9262500D02*
X21964500Y-10672500D01*
X21964500Y-12884500D02*
X21964500Y-11474500D01*
X23619000Y-9110000D02*
X22117000Y-9110000D01*
X23619000Y-13037000D02*
X22117000Y-13037000D01*
X23771500Y-10672500D02*
X23771500Y-9262500D01*
X23771500Y-11474500D02*
X23771500Y-12884500D01*
X21964500Y-9262500D02*
G75*
G02*
X22117000Y-9110000I152500J0D01*
G01*
X22117000Y-13037000D02*
G75*
G02*
X21964500Y-12884500I-1J152499D01*
G01*
X23619000Y-9110000D02*
G75*
G02*
X23771500Y-9262500I0J-152500D01*
G01*
X23771500Y-12884500D02*
G75*
G02*
X23619000Y-13037000I-152499J-1D01*
G01*
%TO.C,C10*%
X21629000Y-37705000D02*
X21629000Y-36295000D01*
X21629000Y-38507000D02*
X21629000Y-39917000D01*
X21781500Y-36142500D02*
X23283500Y-36142500D01*
X21781500Y-40069500D02*
X23283500Y-40069500D01*
X23436000Y-36295000D02*
X23436000Y-37705000D01*
X23436000Y-39917000D02*
X23436000Y-38507000D01*
X21629000Y-36295000D02*
G75*
G02*
X21781500Y-36142500I152499J1D01*
G01*
X21781500Y-40069500D02*
G75*
G02*
X21629000Y-39917000I0J152500D01*
G01*
X23283500Y-36142500D02*
G75*
G02*
X23436000Y-36295000I1J-152499D01*
G01*
X23436000Y-39917000D02*
G75*
G02*
X23283500Y-40069500I-152500J0D01*
G01*
%TO.C,R14*%
X32740500Y-38277500D02*
X34061500Y-38277500D01*
X32740500Y-39236500D02*
X32740500Y-38277500D01*
X32740500Y-40088500D02*
X32740500Y-41047500D01*
X32740500Y-41047500D02*
X34061500Y-41047500D01*
X34061500Y-38277500D02*
X34061500Y-39236500D01*
X34061500Y-41047500D02*
X34061500Y-40088500D01*
%TO.C,R3*%
X32718500Y-17935000D02*
X34039500Y-17935000D01*
X32718500Y-18894000D02*
X32718500Y-17935000D01*
X32718500Y-19746000D02*
X32718500Y-20705000D01*
X32718500Y-20705000D02*
X34039500Y-20705000D01*
X34039500Y-17935000D02*
X34039500Y-18894000D01*
X34039500Y-20705000D02*
X34039500Y-19746000D01*
%TO.C,SW2*%
D13*
X17272000Y-460000D02*
X29972000Y-460000D01*
X17272000Y-7160000D02*
X17272000Y-460000D01*
X29972000Y-460000D02*
X29972000Y-7160000D01*
X29972000Y-7160000D02*
X17272000Y-7160000D01*
%TO.C,LED1*%
D16*
X27490500Y-9641500D02*
X28971500Y-9641500D01*
X27490500Y-10789500D02*
X27490500Y-9641500D01*
X27493000Y-11170500D02*
X27493000Y-12219500D01*
X27793000Y-12519000D02*
X27493000Y-12219500D01*
X27892000Y-10810000D02*
X27902000Y-10810000D01*
X27892000Y-10810000D02*
X28570000Y-10810000D01*
X27894500Y-12519000D02*
X27793000Y-12519000D01*
X27894500Y-12519000D02*
X28593000Y-12519000D01*
X27902000Y-10810000D02*
X28240000Y-11150000D01*
X28240000Y-10810000D02*
X28240000Y-11150000D01*
X28570000Y-10810000D02*
X28570000Y-10820000D01*
X28570000Y-10820000D02*
X28240000Y-11150000D01*
X28593000Y-12519000D02*
X28694500Y-12519000D01*
X28694500Y-12519000D02*
X28994500Y-12219500D01*
X28992000Y-10789500D02*
X28992000Y-9641500D01*
X28994500Y-11170500D02*
X28994500Y-12219500D01*
%TO.C,C59*%
D12*
X19916500Y-9262500D02*
X19916500Y-10672500D01*
X19916500Y-12884500D02*
X19916500Y-11474500D01*
X21571000Y-9110000D02*
X20069000Y-9110000D01*
X21571000Y-13037000D02*
X20069000Y-13037000D01*
X21723500Y-10672500D02*
X21723500Y-9262500D01*
X21723500Y-11474500D02*
X21723500Y-12884500D01*
X19916500Y-9262500D02*
G75*
G02*
X20069000Y-9110000I152500J0D01*
G01*
X20069000Y-13037000D02*
G75*
G02*
X19916500Y-12884500I-1J152499D01*
G01*
X21571000Y-9110000D02*
G75*
G02*
X21723500Y-9262500I0J-152500D01*
G01*
X21723500Y-12884500D02*
G75*
G02*
X21571000Y-13037000I-152499J-1D01*
G01*
%TD*%
%LPC*%
D17*
%TO.C,U5*%
X27547000Y-21271000D03*
X27547000Y-21921500D03*
X27547000Y-22571500D03*
X27547000Y-23222000D03*
X30067000Y-23222000D03*
X30067000Y-22571500D03*
X30067000Y-21921500D03*
X30067000Y-21271000D03*
%TD*%
D18*
%TO.C,R11*%
X36550000Y-35636000D03*
X35043000Y-35636000D03*
%TD*%
D19*
%TO.C,C1*%
X20351500Y-19906000D03*
X20351500Y-21906000D03*
%TD*%
D20*
%TO.C,R7*%
X35043500Y-21709000D03*
X35043500Y-23216000D03*
%TD*%
D21*
%TO.C,J3*%
X52297000Y-46736000D03*
D22*
X54797000Y-46736000D03*
X57297000Y-46736000D03*
X59797000Y-46736000D03*
X62297000Y-46736000D03*
X64797000Y-46736000D03*
%TD*%
D23*
%TO.C,H4*%
X96012000Y-4064000D03*
%TD*%
D24*
%TO.C,C7*%
X38214500Y-18404500D03*
X38214500Y-19804500D03*
%TD*%
D25*
%TO.C,J1*%
X56459500Y-39509000D03*
D26*
X58999500Y-39509000D03*
X61539500Y-39509000D03*
X64079500Y-39509000D03*
X66619500Y-39509000D03*
X69159500Y-39509000D03*
X71699500Y-39509000D03*
X74239500Y-39509000D03*
%TD*%
D20*
%TO.C,R13*%
X35065500Y-38909000D03*
X35065500Y-40416000D03*
%TD*%
%TO.C,R12*%
X33401000Y-35766500D03*
X33401000Y-37273500D03*
%TD*%
%TO.C,R9*%
X50347000Y-8054500D03*
X50347000Y-9561500D03*
%TD*%
D19*
%TO.C,C61*%
X24916500Y-12073500D03*
X24916500Y-10073500D03*
%TD*%
%TO.C,C58*%
X18771500Y-12073500D03*
X18771500Y-10073500D03*
%TD*%
D21*
%TO.C,J4*%
X70966000Y-46736000D03*
D22*
X73466000Y-46736000D03*
X75966000Y-46736000D03*
X78466000Y-46736000D03*
X80966000Y-46736000D03*
X83466000Y-46736000D03*
%TD*%
D20*
%TO.C,R6*%
X31750500Y-38909000D03*
X31750500Y-40416000D03*
%TD*%
D27*
%TO.C,CN1*%
X4147000Y-16081000D03*
X11347000Y-16081000D03*
D28*
X14497000Y-10081000D03*
X997000Y-10081000D03*
%TD*%
D17*
%TO.C,U1*%
X27569000Y-38470500D03*
X27569000Y-39121000D03*
X27569000Y-39771000D03*
X27569000Y-40421500D03*
X30089000Y-40421500D03*
X30089000Y-39771000D03*
X30089000Y-39121000D03*
X30089000Y-38470500D03*
%TD*%
D24*
%TO.C,C16*%
X36725000Y-40379000D03*
X36725000Y-38979000D03*
%TD*%
D23*
%TO.C,H3*%
X95504000Y-45847000D03*
%TD*%
D19*
%TO.C,C9*%
X24765000Y-37081000D03*
X24765000Y-39081000D03*
%TD*%
D18*
%TO.C,R2*%
X36528000Y-18436500D03*
X35021000Y-18436500D03*
%TD*%
D23*
%TO.C,H2*%
X4826000Y-23495000D03*
%TD*%
D29*
%TO.C,J7*%
X56632500Y-12746500D03*
D30*
X59172500Y-12746500D03*
X61712500Y-12746500D03*
X64252500Y-12746500D03*
X66792500Y-12746500D03*
X69332500Y-12746500D03*
X71872500Y-12746500D03*
%TD*%
D31*
%TO.C,USB1*%
X34288000Y-5742000D03*
D32*
X34288000Y-1562000D03*
X42928000Y-1562000D03*
D31*
X42928000Y-5742000D03*
D33*
X41808000Y-6312000D03*
X41008000Y-6312000D03*
D34*
X39858000Y-6312000D03*
X38858000Y-6312000D03*
X38358000Y-6312000D03*
X37358000Y-6312000D03*
D33*
X35408000Y-6312000D03*
X36208000Y-6312000D03*
D34*
X36858000Y-6312000D03*
X37858000Y-6312000D03*
X39358000Y-6312000D03*
X40358000Y-6312000D03*
%TD*%
D23*
%TO.C,H1*%
X4572000Y-45466000D03*
%TD*%
D31*
%TO.C,USB2*%
X48512000Y-5742000D03*
D32*
X48512000Y-1562000D03*
X57152000Y-1562000D03*
D31*
X57152000Y-5742000D03*
D33*
X56032000Y-6312000D03*
X55232000Y-6312000D03*
D34*
X54082000Y-6312000D03*
X53082000Y-6312000D03*
X52582000Y-6312000D03*
X51582000Y-6312000D03*
D33*
X49632000Y-6312000D03*
X50432000Y-6312000D03*
D34*
X51082000Y-6312000D03*
X52082000Y-6312000D03*
X53582000Y-6312000D03*
X54582000Y-6312000D03*
%TD*%
D35*
%TO.C,L1*%
X34568500Y-28647000D03*
X27502500Y-28647000D03*
%TD*%
D29*
%TO.C,J6*%
X79065500Y-35747000D03*
D30*
X81605500Y-35747000D03*
X84145500Y-35747000D03*
X86685500Y-35747000D03*
X89225500Y-35747000D03*
X91765500Y-35747000D03*
X94305500Y-35747000D03*
%TD*%
D19*
%TO.C,C3*%
X24743000Y-19881500D03*
X24743000Y-21881500D03*
%TD*%
D20*
%TO.C,R1*%
X31728500Y-21709000D03*
X31728500Y-23216000D03*
%TD*%
D29*
%TO.C,J8*%
X56632500Y-35874000D03*
D30*
X59172500Y-35874000D03*
X61712500Y-35874000D03*
X64252500Y-35874000D03*
X66792500Y-35874000D03*
X69332500Y-35874000D03*
X71872500Y-35874000D03*
%TD*%
D20*
%TO.C,R4*%
X40957500Y-9557500D03*
X40957500Y-8050500D03*
%TD*%
%TO.C,R5*%
X36195000Y-8009500D03*
X36195000Y-9516500D03*
%TD*%
D24*
%TO.C,C6*%
X31710500Y-19963500D03*
X31710500Y-18563500D03*
%TD*%
D19*
%TO.C,C12*%
X38280500Y-45891000D03*
X38280500Y-43891000D03*
%TD*%
%TO.C,C5*%
X38258500Y-28691500D03*
X38258500Y-26691500D03*
%TD*%
%TO.C,C13*%
X40497000Y-45891000D03*
X40497000Y-43891000D03*
%TD*%
D24*
%TO.C,C15*%
X38236500Y-35604000D03*
X38236500Y-37004000D03*
%TD*%
D19*
%TO.C,C4*%
X40475000Y-28691500D03*
X40475000Y-26691500D03*
%TD*%
D36*
%TO.C,D1*%
X28218000Y-8509000D03*
X31472000Y-8509000D03*
%TD*%
D24*
%TO.C,C14*%
X31732500Y-37163000D03*
X31732500Y-35763000D03*
%TD*%
D20*
%TO.C,R8*%
X55164500Y-9509500D03*
X55164500Y-8002500D03*
%TD*%
%TO.C,R15*%
X29906000Y-10233500D03*
X29906000Y-11740500D03*
%TD*%
D19*
%TO.C,C8*%
X20373500Y-37106000D03*
X20373500Y-39106000D03*
%TD*%
D29*
%TO.C,J5*%
X79065500Y-12746500D03*
D30*
X81605500Y-12746500D03*
X84145500Y-12746500D03*
X86685500Y-12746500D03*
X89225500Y-12746500D03*
X91765500Y-12746500D03*
X94305500Y-12746500D03*
%TD*%
D19*
%TO.C,C2*%
X22510500Y-19906000D03*
X22510500Y-21906000D03*
%TD*%
D24*
%TO.C,C11*%
X36703000Y-23179000D03*
X36703000Y-21779000D03*
%TD*%
D25*
%TO.C,J2*%
X77978000Y-39509000D03*
D26*
X80518000Y-39509000D03*
X83058000Y-39509000D03*
X85598000Y-39509000D03*
X88138000Y-39509000D03*
X90678000Y-39509000D03*
X93218000Y-39509000D03*
X95758000Y-39509000D03*
%TD*%
D35*
%TO.C,L2*%
X34590500Y-45847000D03*
X27524500Y-45847000D03*
%TD*%
D20*
%TO.C,R10*%
X33379000Y-21709000D03*
X33379000Y-23216000D03*
%TD*%
D19*
%TO.C,C60*%
X22868000Y-12073500D03*
X22868000Y-10073500D03*
%TD*%
%TO.C,C10*%
X22532500Y-37106000D03*
X22532500Y-39106000D03*
%TD*%
D20*
%TO.C,R14*%
X33401000Y-38909000D03*
X33401000Y-40416000D03*
%TD*%
%TO.C,R3*%
X33379000Y-18566500D03*
X33379000Y-20073500D03*
%TD*%
D37*
%TO.C,SW2*%
X28322000Y-3810000D03*
X23622000Y-3810000D03*
X18922000Y-3810000D03*
%TD*%
D38*
%TO.C,LED1*%
X28250000Y-11831000D03*
X28245000Y-10230500D03*
%TD*%
D19*
%TO.C,C59*%
X20820000Y-12073500D03*
X20820000Y-10073500D03*
%TD*%
%LPD*%
M02*
