%TF.GenerationSoftware,KiCad,Pcbnew,10.0.5*%
%TF.CreationDate,2026-10-03T00:29:44+08:00*%
%TF.ProjectId,ProPrj_power_2026-10-02,50726f50-726a-45f7-906f-7765725f3230,rev?*%
%TF.SameCoordinates,Original*%
%TF.FileFunction,Profile,NP*%
%FSLAX46Y46*%
G04 Gerber Fmt 4.6, Leading zero omitted, Abs format (unit mm)*
G04 Created by KiCad (PCBNEW 10.0.5) date 2026-10-03 00:29:44*
%MOMM*%
%LPD*%
G01*
G04 APERTURE LIST*
%TA.AperFunction,Profile*%
%ADD10C,0.254000*%
%TD*%
%TA.AperFunction,Profile*%
%ADD11C,0.000000*%
%TD*%
G04 APERTURE END LIST*
D10*
X0Y0D02*
X100000000Y0D01*
X100000000Y-50000000D01*
X0Y-50000000D01*
X0Y0D01*
D11*
%TA.AperFunction,Profile*%
%TO.C,USB1*%
G36*
X35842372Y-4941739D02*
G01*
X35915847Y-4984160D01*
X35975840Y-5044153D01*
X36018261Y-5117628D01*
X36040220Y-5199579D01*
X36040220Y-5284421D01*
X36018261Y-5366372D01*
X35975840Y-5439847D01*
X35915847Y-5499840D01*
X35842372Y-5542261D01*
X35760421Y-5564220D01*
X35675579Y-5564220D01*
X35593628Y-5542261D01*
X35520153Y-5499840D01*
X35460160Y-5439847D01*
X35417739Y-5366372D01*
X35395780Y-5284421D01*
X35395780Y-5199579D01*
X35417739Y-5117628D01*
X35460160Y-5044153D01*
X35520153Y-4984160D01*
X35593628Y-4941739D01*
X35675579Y-4919780D01*
X35760421Y-4919780D01*
X35842372Y-4941739D01*
G37*
%TD.AperFunction*%
%TA.AperFunction,Profile*%
G36*
X41622372Y-4941739D02*
G01*
X41695847Y-4984160D01*
X41755840Y-5044153D01*
X41798261Y-5117628D01*
X41820220Y-5199579D01*
X41820220Y-5284421D01*
X41798261Y-5366372D01*
X41755840Y-5439847D01*
X41695847Y-5499840D01*
X41622372Y-5542261D01*
X41540421Y-5564220D01*
X41455579Y-5564220D01*
X41373628Y-5542261D01*
X41300153Y-5499840D01*
X41240160Y-5439847D01*
X41197739Y-5366372D01*
X41175780Y-5284421D01*
X41175780Y-5199579D01*
X41197739Y-5117628D01*
X41240160Y-5044153D01*
X41300153Y-4984160D01*
X41373628Y-4941739D01*
X41455579Y-4919780D01*
X41540421Y-4919780D01*
X41622372Y-4941739D01*
G37*
%TD.AperFunction*%
%TA.AperFunction,Profile*%
%TO.C,USB2*%
G36*
X50066372Y-4941739D02*
G01*
X50139847Y-4984160D01*
X50199840Y-5044153D01*
X50242261Y-5117628D01*
X50264220Y-5199579D01*
X50264220Y-5284421D01*
X50242261Y-5366372D01*
X50199840Y-5439847D01*
X50139847Y-5499840D01*
X50066372Y-5542261D01*
X49984421Y-5564220D01*
X49899579Y-5564220D01*
X49817628Y-5542261D01*
X49744153Y-5499840D01*
X49684160Y-5439847D01*
X49641739Y-5366372D01*
X49619780Y-5284421D01*
X49619780Y-5199579D01*
X49641739Y-5117628D01*
X49684160Y-5044153D01*
X49744153Y-4984160D01*
X49817628Y-4941739D01*
X49899579Y-4919780D01*
X49984421Y-4919780D01*
X50066372Y-4941739D01*
G37*
%TD.AperFunction*%
%TA.AperFunction,Profile*%
G36*
X55846372Y-4941739D02*
G01*
X55919847Y-4984160D01*
X55979840Y-5044153D01*
X56022261Y-5117628D01*
X56044220Y-5199579D01*
X56044220Y-5284421D01*
X56022261Y-5366372D01*
X55979840Y-5439847D01*
X55919847Y-5499840D01*
X55846372Y-5542261D01*
X55764421Y-5564220D01*
X55679579Y-5564220D01*
X55597628Y-5542261D01*
X55524153Y-5499840D01*
X55464160Y-5439847D01*
X55421739Y-5366372D01*
X55399780Y-5284421D01*
X55399780Y-5199579D01*
X55421739Y-5117628D01*
X55464160Y-5044153D01*
X55524153Y-4984160D01*
X55597628Y-4941739D01*
X55679579Y-4919780D01*
X55764421Y-4919780D01*
X55846372Y-4941739D01*
G37*
%TD.AperFunction*%
%TD*%
M02*
