M48
; DRILL file KiCad 10.0.5 date 2026-10-03T00:29:44
; FORMAT={-:-/ absolute / inch / decimal}
; #@! TF.CreationDate,2026-10-03T00:29:44+08:00
; #@! TF.GenerationSoftware,Kicad,Pcbnew,10.0.5
; #@! TF.FileFunction,Plated,1,2,PTH
FMAT,2
INCH
; #@! TA.AperFunction,Plated,PTH,ViaDrill
T1C0.0120
; #@! TA.AperFunction,Plated,PTH,ComponentDrill
T2C0.0236
; #@! TA.AperFunction,Plated,PTH,ComponentDrill
T3C0.0360
; #@! TA.AperFunction,Plated,PTH,ComponentDrill
T4C0.0394
; #@! TA.AperFunction,Plated,PTH,ComponentDrill
T5C0.0433
; #@! TA.AperFunction,Plated,PTH,ComponentDrill
T6C0.0512
; #@! TA.AperFunction,Plated,PTH,ComponentDrill
T7C0.1142
%
G90
G05
T1
X0.78Y-1.3
X0.795Y-1.0462
X1.1837Y-0.7908
X1.1846Y-1.468
X1.235Y-0.15
X1.3891Y-0.7758
X1.39Y-1.453
X1.407Y-1.5647
X1.4092Y-0.8846
X2.64Y-1.095
X2.775Y-0.76
X2.835Y-1.005
X2.9Y-0.76
X2.93Y-1.27
X2.945Y-1.12
X2.953Y-1.305
X3.045Y-0.76
X3.045Y-1.27
X3.05Y-1.31
X3.165Y-1.3
X3.32Y-1.3
X3.535Y-0.98
X3.705Y-1.14
T3
X2.0589Y-1.84
X2.1574Y-1.84
X2.2558Y-1.84
X2.3542Y-1.84
X2.4526Y-1.84
X2.5511Y-1.84
X2.7939Y-1.84
X2.8924Y-1.84
X2.9908Y-1.84
X3.0892Y-1.84
X3.1876Y-1.84
X3.2861Y-1.84
T4
X2.2228Y-1.5555
X2.3228Y-1.5555
X2.4228Y-1.5555
X2.5228Y-1.5555
X2.6228Y-1.5555
X2.7228Y-1.5555
X2.8228Y-1.5555
X2.9228Y-1.5555
X3.07Y-1.5555
X3.17Y-1.5555
X3.27Y-1.5555
X3.37Y-1.5555
X3.47Y-1.5555
X3.57Y-1.5555
X3.67Y-1.5555
X3.77Y-1.5555
T5
X2.2296Y-0.5018
X2.2296Y-1.4124
X2.3296Y-0.5018
X2.3296Y-1.4124
X2.4296Y-0.5018
X2.4296Y-1.4124
X2.5296Y-0.5018
X2.5296Y-1.4124
X2.6296Y-0.5018
X2.6296Y-1.4124
X2.7296Y-0.5018
X2.7296Y-1.4124
X2.8296Y-0.5018
X2.8296Y-1.4124
X3.1128Y-0.5018
X3.1128Y-1.4074
X3.2128Y-0.5018
X3.2128Y-1.4074
X3.3128Y-0.5018
X3.3128Y-1.4074
X3.4128Y-0.5018
X3.4128Y-1.4074
X3.5128Y-0.5018
X3.5128Y-1.4074
X3.6128Y-0.5018
X3.6128Y-1.4074
X3.7128Y-0.5018
X3.7128Y-1.4074
T7
X0.1633Y-0.6331
X0.4467Y-0.6331
T2
G00X0.0393Y-0.3772
M15
G01X0.0393Y-0.4166
M16
G05
G00X0.5707Y-0.3772
M15
G01X0.5707Y-0.4166
M16
G05
G00X1.3499Y-0.0772
M15
G01X1.3499Y-0.0457
M16
G05
G00X1.3499Y-0.2477
M15
G01X1.3499Y-0.2044
M16
G05
G00X1.6901Y-0.0772
M15
G01X1.6901Y-0.0457
M16
G05
G00X1.6901Y-0.2477
M15
G01X1.6901Y-0.2044
M16
G05
G00X1.9099Y-0.0772
M15
G01X1.9099Y-0.0457
M16
G05
G00X1.9099Y-0.2477
M15
G01X1.9099Y-0.2044
M16
G05
G00X2.2501Y-0.0772
M15
G01X2.2501Y-0.0457
M16
G05
G00X2.2501Y-0.2477
M15
G01X2.2501Y-0.2044
M16
G05
T6
G00X0.745Y-0.1638
M15
G01X0.745Y-0.1362
M16
G05
G00X0.93Y-0.1638
M15
G01X0.93Y-0.1362
M16
G05
G00X1.115Y-0.1638
M15
G01X1.115Y-0.1362
M16
G05
M30
